<?xml version="1.0" standalone="no"?><!DOCTYPE svg PUBLIC "-//W3C//DTD SVG 1.1//EN" "http://www.w3.org/Graphics/SVG/1.1/DTD/svg11.dtd"><svg t="1612499931710" class="icon" viewBox="0 0 1024 1024" version="1.1" xmlns="http://www.w3.org/2000/svg" p-id="8169" xmlns:xlink="http://www.w3.org/1999/xlink" width="29" height="29"><defs><style type="text/css"></style></defs><path d="M962 669.104h-66.137v-75.732c0-52.16-10.223-102.712-30.292-150.328-19.405-46.007-47.33-87.281-82.828-122.78-35.499-35.5-76.771-63.332-122.776-82.833-47.615-20.164-98.165-30.293-150.323-30.293-52.159 0-102.708 10.224-150.323 30.293-46.005 19.407-87.278 47.333-122.776 82.832-35.498 35.5-63.328 76.774-82.828 122.78-20.163 47.617-30.292 98.169-30.292 150.33v75.731H62v-94.58C62 340.322 275.451 141 509.644 141S962 340.322 962 574.524v94.58zM476 289.477h72v-64h-72v64z m-334.908 320.69h72v-64h-72v64z m96.825-259.995l50.911 50.911 45.255-45.255-50.911-50.911-45.255 45.255z m553.166 0l-50.911 50.911-45.255-45.255 50.911-50.911 45.255 45.255zM807 610.167h72v-64h-72v64z m-295.179 86.121c-10.413 0-18.932 8.52-18.932 18.933s8.52 18.933 18.932 18.933c10.413 0 18.933-8.52 18.933-18.933s-8.52-18.933-18.933-18.933m0-37.866c31.333 0 56.797 25.465 56.797 56.8 0 31.333-25.464 56.798-56.797 56.798s-56.797-25.465-56.797-56.799 25.464-56.799 56.797-56.799z m-67.588-73.933l51.306 145.973 30.955 12.59 7.478-32.47-89.74-126.093m-94.574-200.26L574.676 702.44l-21.204 92.393-88.035-35.783-115.779-374.823z m425.038 435.124H244.592v64h530.104v-64z" p-id="8170"></path></svg>