<?xml version="1.0" standalone="no"?><!DOCTYPE svg PUBLIC "-//W3C//DTD SVG 1.1//EN" "http://www.w3.org/Graphics/SVG/1.1/DTD/svg11.dtd"><svg t="1612501428953" class="icon" viewBox="0 0 1024 1024" version="1.1" xmlns="http://www.w3.org/2000/svg" p-id="10435" xmlns:xlink="http://www.w3.org/1999/xlink" width="29" height="29"><defs><style type="text/css"></style></defs><path d="M881.279725 865.983729C969.471697 774.015758 1023.99968 649.471797 1023.99968 511.99984 1023.99968 260.415919 842.399737 51.679984 603.295811 8.607997A517.279838 517.279838 0 0 0 511.99984 0C229.215928 0 0 229.215928 0 511.99984c0 138.015957 54.847983 262.975918 143.615955 355.071889 0.32 0.512 0.416 1.056 0.768 1.536 0.832 1.056 2.079999 1.631999 3.007999 2.591999A510.303841 510.303841 0 0 0 511.99984 1023.99968c142.111956 0 270.623915-58.015982 363.423886-151.519953 1.408-1.28 3.231999-2.047999 4.447999-3.647999 0.704-0.896 0.896-1.919999 1.408-2.847999z m-339.679894 96.22397V764.159761c48.191985 2.623999 95.19997 11.327996 140.063956 26.367992-26.271992 62.175981-60.831981 119.135963-103.359968 167.743948-12.223996 1.887999-24.415992 3.199999-36.703988 3.935998z m-86.559973-2.431999c-43.583986-49.567985-78.783975-107.775966-105.407967-171.423946a530.047834 530.047834 0 0 1 131.711959-24.127993v198.015938c-8.831997-0.64-17.599995-1.408-26.303992-2.463999zM61.727981 542.111831h173.311946a792.895752 792.895752 0 0 0 37.503988 210.943934 587.935816 587.935816 0 0 0-99.423969 56.671982 449.47186 449.47186 0 0 1-111.391965-267.615916zM173.119946 214.207933a586.879817 586.879817 0 0 0 97.15197 55.359983 793.471752 793.471752 0 0 0-35.615989 212.287933H61.727981A449.50386 449.50386 0 0 1 173.119946 214.207933z m308.223904-152.415952v198.015938a531.103834 531.103834 0 0 1-134.047959-24.799992c25.535992-62.78398 59.487981-120.447962 101.375969-169.791947 10.751997-1.536 21.631993-2.719999 32.67199-3.423999z m103.295967 4.863998c40.831987 48.383985 74.047977 104.639967 99.231969 165.855948a528.095835 528.095835 0 0 1-142.239955 27.327992V61.759981c14.367996 0.928 28.735991 2.559999 43.007986 4.895998z m377.567882 415.23187H797.439751a786.111754 786.111754 0 0 0-36.671989-215.711932 597.887813 597.887813 0 0 0 90.079972-51.871984 449.27986 449.27986 0 0 1 111.359965 267.583916z m-480.863849 0H294.911908a734.399771 734.399771 0 0 1 32.09599-190.04794c49.503985 16.255995 101.279968 25.535992 154.303952 28.223991v161.823949z m0 60.223982v161.855949a590.591815 590.591815 0 0 0-152.511953 27.743991 731.199772 731.199772 0 0 1-33.567989-189.59994h186.079942z m60.255981 0h195.327939a734.52777 734.52777 0 0 1-34.27199 191.83994 587.679816 587.679816 0 0 0-161.023949-30.015991v-161.823949z m0-60.223982v-161.791949a588.479816 588.479816 0 0 0 162.751949-30.97599 732.895771 732.895771 0 0 1 32.86399 192.735939h-195.615939z m198.527938-272.511914a705.887779 705.887779 0 0 0-61.695981-116.959964 451.551859 451.551859 0 0 1 128.95996 78.623976c-21.631993 14.495995-44.127986 27.295991-67.263979 38.335988z m-449.37586 3.295999a530.847834 530.847834 0 0 1-74.239977-41.631987 452.223859 452.223859 0 0 1 139.743957-82.591975 702.52778 702.52778 0 0 0-65.50398 124.223962z m2.751999 597.183813a703.87178 703.87178 0 0 0 68.863979 127.90396 451.455859 451.455859 0 0 1-145.983955-84.927974 536.479832 536.479832 0 0 1 77.119976-42.975986z m443.775862 3.327999a527.359835 527.359835 0 0 1 70.207978 39.615988 449.791859 449.791859 0 0 1-135.103958 80.959974 701.759781 701.759781 0 0 0 64.89598-120.575962z m21.183993-56.671982a791.935753 791.935753 0 0 0 38.687988-214.367933h165.055948a449.34386 449.34386 0 0 1-111.327965 267.583916 593.119815 593.119815 0 0 0-92.415971-53.215983z m0 0" p-id="10436"></path></svg>