<?xml version="1.0" standalone="no"?><!DOCTYPE svg PUBLIC "-//W3C//DTD SVG 1.1//EN" "http://www.w3.org/Graphics/SVG/1.1/DTD/svg11.dtd"><svg t="1612501410050" class="icon" viewBox="0 0 1024 1024" version="1.1" xmlns="http://www.w3.org/2000/svg" p-id="9681" xmlns:xlink="http://www.w3.org/1999/xlink" width="29" height="29"><defs><style type="text/css"></style></defs><path d="M512.00128 1023.999488a509.951745 509.951745 0 0 1-325.990237-117.145541l-1.023999-0.8704a514.866943 514.866943 0 0 1-13.311994-11.468794l14.335993 12.339194a516.505342 516.505342 0 0 1-28.518386-25.446388l-2.047999-1.945599-10.137595-10.188795a515.174142 515.174142 0 0 1-5.068797-5.222397A510.258945 510.258945 0 0 1 0.001536 511.999744C0.001536 229.222285 229.223821 0 512.00128 0s511.999744 229.222285 511.999744 511.999744a509.900545 509.900545 0 0 1-115.711942 324.249438l-0.9216 1.023999a514.969343 514.969343 0 0 1-39.57758 42.905579l-8.191996 7.679996A510.156545 510.156545 0 0 1 512.00128 1023.999488z m-112.639944-330.751835a215.193492 215.193492 0 0 0-149.094325 58.623971c-20.53119 19.45599-36.300782 42.239979-46.694377 67.071967A433.561383 433.561383 0 0 0 512.00128 947.199526c43.161578 0 84.838358-6.297597 124.159938-17.919991a39.01438 39.01438 0 0 1-26.214387-36.556781c0-53.196773-21.811189-103.167948-61.439969-140.85113A215.193492 215.193492 0 0 0 399.361336 693.247653zM512.00128 76.799962a435.199782 435.199782 0 0 0-363.673418 674.303662c12.390394-19.96799 27.391986-38.348781 44.851177-54.886372 22.988789-21.811189 49.151975-39.62878 78.028761-53.043174l14.643193-6.348796 8.089596-3.071999-10.444795-5.119997a243.353478 243.353478 0 0 1-34.713582-21.811189l-10.700795-8.550396-10.239995-9.164796a223.897488 223.897488 0 0 1-71.270364-163.532718c0-61.747169 25.395187-119.91034 71.321564-163.481518A247.244676 247.244676 0 0 1 399.258936 194.559903c64.665568 0 125.593537 24.012788 171.417515 67.481566a223.897488 223.897488 0 0 1 71.321564 163.532718c0 61.747169-25.395187 119.91034-71.321564 163.532718-13.311993 12.646394-27.955186 23.654388-43.622379 32.921584l-11.980794 6.655997-10.444794 5.119997 8.038396 2.969599c24.780788 9.983995 47.769576 23.039988 68.659165 38.91198l12.287994 9.932795 11.775994 10.598395a276.735862 276.735862 0 0 1 62.617569 88.217556c15.257592 34.252783 23.039988 70.604765 23.193588 108.287946a37.785581 37.785581 0 0 1-4.556797 18.073591 436.838182 436.838182 0 0 0 146.790326-105.369548 167.372716 167.372716 0 0 0-45.055977-79.61596 169.727915 169.727915 0 0 0-141.26073-48.435176l-2.047999-1.638399a292.556654 292.556654 0 0 0-54.067173-32.614384l-14.643192-6.348796-8.038396-2.969599 10.444795-5.119997 11.980794-6.655997a242.636679 242.636679 0 0 0 74.751962-69.119965l2.355199 0.0512c64.972768 0 117.759941-52.787174 117.759941-117.759942a117.913541 117.913541 0 0 0-107.775946-117.350341 232.601484 232.601484 0 0 0-56.012772-66.918366c14.847993-3.379198 30.259185-5.171197 45.977577-5.171198 53.452773 0 103.833548 20.78719 141.670329 58.419171a197.529501 197.529501 0 0 1 58.777571 141.055929c0 53.247973-20.94079 103.423948-58.777571 141.05593a201.779099 201.779099 0 0 1-30.515184 24.985587l-11.110395 6.860797-10.137595 5.375997 3.686398 1.4848c19.60959 8.243196 37.887981 18.943991 54.579173 31.999984l12.185594 10.188794 9.727995 9.113596c18.534391 18.483191 33.791983 39.57758 45.414377 62.771168A435.199782 435.199782 0 0 0 512.00128 76.799962zM399.207736 272.742264c-89.087955 0-161.484719 68.710366-161.484719 152.831923 0 84.121558 72.345564 152.831924 161.484719 152.831924 89.139155 0 161.433519-68.607966 161.43352-152.831924 0-84.121558-72.345564-152.831924-161.43352-152.831923z" p-id="9682"></path></svg>